External Loads File
version=1
nRows=38
nColumns=13
Range=5.000000e-03-10 seconds
endheader
time 	forceRightX 	forceRightY 	forceRightZ 	pointRightX 	pointRightY 	pointRightZ 	forceLeftX 	forceLeftY 	forceLeftZ 	pointLeftX 	pointLeftY 	pointLeftZ 		
7.505000 109.378946 163.737167 -0.000000 0.185420 0.195295 -0.111087 -108.372555 236.808470 -0.000000 0.369205 0.474325 -0.361952
7.510000 97.563731 115.776942 -0.000000 0.178002 0.202393 -0.111190 -119.127296 255.072709 -0.000000 0.376000 0.467799 -0.362093
7.515000 85.387878 73.567071 -0.000000 0.171166 0.209720 -0.111229 -130.071577 275.944239 -0.000000 0.382364 0.460248 -0.362231
7.520000 73.342117 37.522100 -0.000000 0.164841 0.217511 -0.111203 -140.654735 299.343010 -0.000000 0.388608 0.451817 -0.362419
7.525000 61.677329 8.012240 -0.000000 0.159044 0.225570 -0.111134 -151.105379 324.605950 -0.000000 0.394681 0.443272 -0.362260
7.530000 50.764302 -15.107316 -0.000000 0.153750 0.233964 -0.110965 -160.946259 351.246520 -0.000000 0.400260 0.434344 -0.362369
7.535000 40.854268 -32.231900 -0.000000 0.149027 0.242588 -0.110848 -169.584030 378.786599 -0.000000 0.405466 0.424952 -0.362295
7.540000 32.181041 -43.917833 -0.000000 0.144757 0.251387 -0.110667 -176.882253 406.622082 -0.000000 0.410162 0.415415 -0.362176
7.545000 24.903351 -50.942899 -0.000000 0.140615 0.260603 -0.110814 -182.317165 434.529270 -0.000000 0.414238 0.405927 -0.362162
7.550000 19.085643 -54.160873 -0.000000 0.137415 0.270250 -0.110712 -185.471470 462.517238 -0.000000 0.417880 0.396023 -0.362034
7.555000 14.758615 -54.424903 -0.000000 0.134743 0.279882 -0.110597 -186.695091 490.574627 -0.000000 0.421045 0.385803 -0.361781
7.560000 11.806667 -52.579263 -0.000000 0.132657 0.289658 -0.110499 -186.160396 519.026457 -0.000000 0.423670 0.375397 -0.361782
7.565000 9.969078 -49.386934 -0.000000 0.131201 0.299877 -0.110288 -183.512242 548.546875 -0.000000 0.425910 0.364797 -0.361301
7.570000 9.047137 -45.470654 -0.000000 0.130246 0.310125 -0.110343 -179.563741 579.459711 -0.000000 0.427488 0.353933 -0.361220
7.575000 8.749140 -41.343304 -0.000000 0.130047 0.320557 -0.110187 -174.460345 612.319143 -0.000000 0.428547 0.342931 -0.361157
7.580000 8.821269 -37.355191 -0.000000 0.130256 0.330849 -0.110223 -168.815270 647.436900 -0.000000 0.429066 0.331753 -0.360914
7.585000 8.932551 -33.732280 -0.000000 0.131065 0.341696 -0.110434 -161.379720 685.310908 -0.000000 0.428818 0.320559 -0.361487
7.590000 8.953641 -30.561725 -0.000000 0.132674 0.352181 -0.110667 -153.831184 725.269708 -0.000000 0.428164 0.309397 -0.361957
7.595000 8.653416 -27.916840 -0.000000 0.134849 0.362705 -0.110798 -145.072920 766.993756 -0.000000 0.427235 0.298322 -0.361191
7.600000 7.900284 -25.842585 -0.000000 0.137698 0.373116 -0.111037 -135.015699 809.720771 -0.000000 0.425529 0.287449 -0.361105
7.605000 6.598930 -24.371090 -0.000000 0.141137 0.383055 -0.111255 -124.128706 852.513073 -0.000000 0.423322 0.276703 -0.361058
7.610000 4.629622 -23.508337 -0.000000 0.145181 0.393033 -0.111501 -111.428116 894.634444 -0.000000 0.420538 0.266355 -0.361038
7.615000 1.912502 -23.194667 -0.000000 0.149795 0.403128 -0.111576 -95.933093 935.319267 -0.000000 0.417162 0.256204 -0.360906
7.620000 -1.499649 -23.320443 -0.000000 0.154796 0.412816 -0.112019 -80.684847 973.495997 -0.000000 0.413311 0.246728 -0.360675
7.625000 -5.665000 -23.763905 -0.000000 0.160321 0.422123 -0.112257 -62.291158 1008.853566 -0.000000 0.408816 0.236857 -0.360687
7.630000 -10.449314 -24.408566 -0.000000 0.166497 0.431285 -0.112440 -43.169775 1040.642372 -0.000000 0.403915 0.227659 -0.360574
7.635000 -15.733747 -25.178672 -0.000000 0.173033 0.440105 -0.112756 -24.542791 1068.408262 -0.000000 0.398526 0.219253 -0.360501
7.640000 -21.455609 -25.979988 -0.000000 0.179973 0.448267 -0.113004 -5.353425 1091.879788 -0.000000 0.392800 0.210785 -0.360363
7.645000 -27.535966 -26.693626 -0.000000 0.187510 0.456183 -0.113206 14.923954 1110.770407 -0.000000 0.386543 0.202836 -0.360431
7.650000 -33.838298 -27.206539 -0.000000 0.195164 0.463697 -0.113544 34.185455 1124.867235 -0.000000 0.379995 0.195362 -0.360329
7.655000 -40.306841 -27.207284 -0.000000 0.203301 0.470723 -0.113806 53.761738 1133.995594 -0.000000 0.372980 0.188336 -0.360377
7.660000 -46.785449 -26.382764 -0.000000 0.211527 0.477165 -0.114170 71.795937 1138.175068 -0.000000 0.365636 0.181852 -0.360500
7.665000 -53.171342 -24.308002 -0.000000 0.220057 0.483253 -0.114730 89.523658 1137.367762 -0.000000 0.357906 0.175885 -0.360606
7.670000 -59.313250 -20.654017 -0.000000 0.229241 0.488731 -0.114522 107.270602 1131.595604 -0.000000 0.349921 0.170395 -0.360703
7.675000 -64.973655 -15.416034 -0.000000 0.237888 0.493723 -0.115297 121.675113 1121.285256 -0.000000 0.341648 0.165417 -0.360886
7.680000 -70.036609 -8.400725 -0.000000 0.247035 0.498146 -0.115641 135.568008 1106.264425 -0.000000 0.333153 0.161121 -0.361009
7.685000 -74.352498 0.307742 -0.000000 0.256493 0.501893 -0.116003 148.883088 1086.520607 -0.000000 0.324373 0.157338 -0.361118
7.690000 -77.830526 10.391999 -0.000000 0.265896 0.505087 -0.116382 160.507904 1062.061607 -0.000000 0.315390 0.154267 -0.361289
